<svg viewBox="0 0 64 64" xmlns="http://www.w3.org/2000/svg"><path d="m62 31.6c.8 15.4-13.1 28.4-29.9 28.4s-31.7-13.8-30-29.1c2.4-21.5 18.3-22.9 30-22.9 7.1 0 28.1-6.2 29.9 23.6z" fill="#ef4d3c"/><path d="m11 27c6.2-9.6 16.8-6.8 19.6-10.4 0 6.9 5 3.5 7.5 6.6 3.2 4 4.4 11.1 8.2 12.5-3.7-7.9 2.3-7.6-6.1-18.2 4.5 2.8 6.8 0 12.9 2.5-5.3-8.4-13.6-6-13.6-6s5.2-4.8 9.6-2.3c-4.6-6.8-17.9 1.8-17.9 1.8s-5.5-9.4-17.3.5c6.9-2.8 14.5 0 14.5 0s-12.5-3.1-17.4 13" fill="#8cc63e"/><g fill="#64892f"><path d="m11 27s7.3-13.5 19.9-12.3c-11.1-5.1-19.9 5.7-19.9 12.3z"/><path d="m13.9 14s9.2-6.9 17.3 0c-2.4-8.4-14.7-4.5-17.3 0m19.3.9c12.2 5.6 8.1 12 13.1 21-3.4-7.5 5-21-13.1-21"/><path d="m28.4 14s2.8-4.2 3.8-9.4c.1-.7 3.1-.6 3 .1-1 6.7 1.7 10.4 1.7 10.4s-2.1.7-4.7.7c-2.6.1-3.8-1.8-3.8-1.8"/></g><ellipse cx="33.7" cy="4.6" fill="#8cc63e" rx="1.5" ry=".6"/></svg>